<?xml version="1.0" encoding="utf-8"?><svg viewBox="0 0 56 56" xmlns="http://www.w3.org/2000/svg" xmlns:xlink="http://www.w3.org/1999/xlink"><style>:root>svg{display:none}:root>svg:target{display:block}</style><svg fill="none" viewBox="0 0 10 17" id="fb" xmlns="http://www.w3.org/2000/svg"><path d="M8.845.004L6.64 0C4.164 0 2.563 1.642 2.563 4.184v1.929H.347A.347.347 0 000 6.46v2.794c0 .192.155.347.347.347h2.216v7.052c0 .192.155.347.347.347h2.892a.347.347 0 00.346-.347V9.601H8.74a.346.346 0 00.347-.347V6.46a.347.347 0 00-.346-.347H6.148V4.477c0-.785.188-1.184 1.212-1.184l1.485-.001a.347.347 0 00.346-.347V.35a.347.347 0 00-.346-.346z" fill="#959595"/></svg><svg fill="none" viewBox="0 0 17 14" id="tw" xmlns="http://www.w3.org/2000/svg"><path d="M17 1.64a6.952 6.952 0 01-2.006.54A3.384 3.384 0 0016.526.26c-.691.409-1.428.69-2.212.84-.69-.733-1.539-1.1-2.546-1.1-.963 0-1.785.34-2.465 1.02a3.358 3.358 0 00-1.019 2.464c0 .259.029.525.087.798A9.709 9.709 0 014.363 3.21 9.878 9.878 0 011.186.636a3.413 3.413 0 00-.474 1.759c0 .596.14 1.15.42 1.66.281.511.659.925 1.133 1.241A3.456 3.456 0 01.69 4.854v.043c0 .841.265 1.58.793 2.217a3.427 3.427 0 002.001 1.202c-.302.08-.608.119-.917.119-.201 0-.42-.018-.658-.054a3.41 3.41 0 001.23 1.72c.597.45 1.273.682 2.028.697C3.9 11.79 2.459 12.286.84 12.286c-.309 0-.59-.014-.841-.043 1.618 1.043 3.401 1.564 5.35 1.564 1.237 0 2.399-.196 3.484-.588 1.086-.392 2.014-.917 2.783-1.575a10.537 10.537 0 001.99-2.27c.558-.856.973-1.75 1.246-2.68a9.9 9.9 0 00.4-3.253A7.296 7.296 0 0017 1.64z" fill="#959595"/></svg><svg fill="none" viewBox="0 0 56 56" id="user" xmlns="http://www.w3.org/2000/svg"><path d="M28 55c14.912 0 27-12.088 27-27S42.912 1 28 1 1 13.088 1 28s12.088 27 27 27z" stroke="#fff" stroke-width="2"/><path d="M39 39.875v-2.65a5.3 5.3 0 00-5.3-5.3H23.1a5.3 5.3 0 00-5.3 5.3v2.65M28.4 26.627a5.3 5.3 0 100-10.6 5.3 5.3 0 000 10.6z" stroke="#fff" stroke-width="2" stroke-linecap="round" stroke-linejoin="round"/></svg><svg fill="none" viewBox="0 0 19 11" id="vk" xmlns="http://www.w3.org/2000/svg"><path d="M18.789 9.733a1.283 1.283 0 00-.064-.123c-.328-.59-.954-1.315-1.879-2.174l-.02-.02-.009-.01-.01-.009h-.01c-.42-.4-.685-.669-.796-.807-.204-.262-.25-.527-.138-.796.078-.204.374-.633.885-1.288.269-.348.482-.627.64-.836 1.133-1.508 1.625-2.472 1.474-2.892L18.804.68c-.04-.059-.141-.113-.305-.162-.164-.05-.374-.057-.63-.025l-2.832.02a.368.368 0 00-.197.005l-.127.03-.05.024-.039.03a.438.438 0 00-.108.103.677.677 0 00-.098.172 16.06 16.06 0 01-1.053 2.213c-.242.406-.465.759-.668 1.057a5.094 5.094 0 01-.512.659c-.138.14-.262.254-.374.339-.111.085-.196.121-.255.108a6.733 6.733 0 01-.168-.04.655.655 0 01-.22-.24 1.077 1.077 0 01-.114-.384 4.184 4.184 0 01-.034-.398 8.24 8.24 0 01.005-.472c.006-.203.01-.341.01-.413 0-.25.004-.52.014-.812l.025-.693c.007-.17.01-.35.01-.54 0-.19-.012-.34-.035-.448a1.525 1.525 0 00-.103-.315.53.53 0 00-.201-.236 1.137 1.137 0 00-.33-.133c-.347-.078-.79-.121-1.328-.128-1.22-.013-2.003.066-2.35.237-.138.072-.262.17-.374.294-.118.145-.134.223-.05.236.394.06.673.2.837.423l.059.118c.046.086.092.236.138.453.045.216.075.455.088.718.033.478.033.888 0 1.229-.033.34-.064.606-.093.797a1.596 1.596 0 01-.251.678.168.168 0 01-.05.05.736.736 0 01-.265.048c-.092 0-.203-.045-.334-.137a2.356 2.356 0 01-.408-.379 5.06 5.06 0 01-.477-.674c-.177-.288-.361-.629-.551-1.022l-.157-.286c-.099-.183-.233-.45-.404-.801-.17-.35-.32-.69-.452-1.018A.648.648 0 003.757.65l-.05-.03A.674.674 0 003.55.538a1.044 1.044 0 00-.226-.064L.63.493C.354.493.167.555.069.68l-.04.059A.318.318 0 000 .896c0 .072.02.16.059.266.393.924.821 1.816 1.283 2.675.463.858.864 1.55 1.205 2.075.341.524.689 1.02 1.043 1.485.354.465.588.764.703.895.115.13.205.23.27.295l.246.236c.157.157.389.345.693.565.305.22.643.436 1.013.65.37.212.802.386 1.294.52.491.135.97.189 1.436.163h1.13c.23-.02.404-.092.522-.216l.039-.05c.026-.039.051-.1.074-.182a1 1 0 00.034-.27 3.238 3.238 0 01.064-.762c.049-.226.105-.397.167-.511a1.258 1.258 0 01.38-.433.652.652 0 01.078-.035c.157-.052.342-.001.555.153.213.154.413.344.6.57.187.227.412.48.674.763.262.282.492.491.688.629l.197.118c.131.079.302.15.512.216a1.1 1.1 0 00.55.05l2.518-.04c.249 0 .443-.04.58-.123.138-.082.22-.172.246-.27a.76.76 0 00.005-.335 1.237 1.237 0 00-.07-.26z" fill="#959595"/></svg><svg fill="none" viewBox="0 0 20 15" id="youtube" xmlns="http://www.w3.org/2000/svg"><path d="M19.22 1.288C18.5.373 17.166 0 14.62 0H5.38C2.776 0 1.42.397.7 1.37 0 2.32 0 3.72 0 5.656v3.69C0 13.095.832 15 5.38 15h9.24c2.208 0 3.43-.33 4.222-1.136.812-.828 1.158-2.18 1.158-4.519v-3.69c0-2.042-.054-3.449-.78-4.367zm-6.38 6.721l-4.196 2.338a.612.612 0 01-.633-.022.698.698 0 01-.31-.588V5.078c0-.24.117-.463.31-.588a.61.61 0 01.632-.022l4.196 2.322a.694.694 0 01.347.61.695.695 0 01-.346.61z" fill="#959595"/></svg></svg>