<?xml version="1.0" encoding="utf-8"?><svg viewBox="0 0 56 56" xmlns="http://www.w3.org/2000/svg" xmlns:xlink="http://www.w3.org/1999/xlink"><style>:root>svg{display:none}:root>svg:target{display:block}</style><svg fill="#D0B194" viewBox="0 0 31 16" id="arrow" xmlns="http://www.w3.org/2000/svg"><path d="M30.707 8.707a1 1 0 000-1.414L24.343.929a1 1 0 10-1.414 1.414L28.586 8l-5.657 5.657a1 1 0 001.414 1.414l6.364-6.364zM0 9h30V7H0v2z"/></svg><svg fill="none" viewBox="0 0 56 56" id="user" xmlns="http://www.w3.org/2000/svg"><path d="M28 55c14.912 0 27-12.088 27-27S42.912 1 28 1 1 13.088 1 28s12.088 27 27 27z" stroke="#fff" stroke-width="2"/><path d="M39 39.875v-2.65a5.3 5.3 0 00-5.3-5.3H23.1a5.3 5.3 0 00-5.3 5.3v2.65M28.4 26.627a5.3 5.3 0 100-10.6 5.3 5.3 0 000 10.6z" stroke="#fff" stroke-width="2" stroke-linecap="round" stroke-linejoin="round"/></svg></svg>