<svg width="10" height="17" viewBox="0 0 10 17" fill="none" xmlns="http://www.w3.org/2000/svg">
<path d="M8.845 0.00354004L6.6404 0C4.1637 0 2.56318 1.64212 2.56318 4.18372V6.1127H0.34664C0.1551 6.1127 0 6.26798 0 6.45952V9.2544C0 9.446 0.15528 9.601 0.34664 9.601H2.56318V16.6534C2.56318 16.8449 2.71829 17 2.90982 17H5.8018C5.9933 17 6.1484 16.8447 6.1484 16.6534V9.601H8.7401C8.9316 9.601 9.0867 9.446 9.0867 9.2544L9.0878 6.45952C9.0878 6.36755 9.0512 6.27948 8.9863 6.21439C8.9214 6.14931 8.8329 6.1127 8.741 6.1127H6.1484V4.47748C6.1484 3.69153 6.3357 3.29254 7.3595 3.29254L8.8446 3.29201C9.036 3.29201 9.1911 3.13673 9.1911 2.94537V0.35018C9.1911 0.15899 9.0361 0.00389004 8.845 0.00354004Z" fill="#959595"/>
</svg>
