<svg width="17" height="14" viewBox="0 0 17 14" fill="none" xmlns="http://www.w3.org/2000/svg">
<path d="M17 1.63964C16.3312 1.92731 15.6622 2.10696 14.9938 2.17912C15.7488 1.72609 16.2595 1.08606 16.5257 0.25911C15.8349 0.66892 15.0979 0.9493 14.3142 1.10038C13.6238 0.3669 12.7754 0 11.7684 0C10.8049 0 9.9834 0.33973 9.3035 1.01934C8.6241 1.69891 8.2843 2.52044 8.2843 3.48402C8.2843 3.74285 8.313 4.00903 8.3706 4.28226C6.94668 4.21036 5.61095 3.85262 4.36319 3.20901C3.11549 2.56532 2.05659 1.70776 1.18649 0.63632C0.87006 1.17553 0.7118 1.76171 0.7118 2.39452C0.7118 2.99139 0.85201 3.54518 1.13261 4.05577C1.41303 4.56627 1.79065 4.97971 2.26529 5.29616C1.70428 5.27455 1.17934 5.1271 0.69042 4.85382V4.89696C0.69042 5.7384 0.9547 6.4771 1.48319 7.1138C2.01175 7.7503 2.67878 8.151 3.48413 8.3164C3.18207 8.3955 2.87638 8.435 2.5672 8.435C2.36583 8.435 2.14647 8.4171 1.90921 8.3814C2.13212 9.0788 2.54204 9.652 3.13884 10.1018C3.73575 10.5511 4.41173 10.7828 5.16683 10.7976C3.90123 11.7898 2.45941 12.2859 0.84139 12.2859C0.53211 12.2859 0.25174 12.2718 0 12.2429C1.61807 13.2855 3.40146 13.8068 5.3503 13.8068C6.58718 13.8068 7.7486 13.6111 8.8341 13.219C9.9202 12.8273 10.8478 12.3022 11.6173 11.6441C12.3866 10.9862 13.0501 10.2293 13.6074 9.3735C14.1646 8.5178 14.5798 7.6243 14.8533 6.6931C15.1265 5.76167 15.2631 4.82881 15.2631 3.89379C15.2631 3.69242 15.2595 3.54148 15.2523 3.44075C15.9357 2.9448 16.5181 2.34422 17 1.63964Z" fill="#959595"/>
</svg>
