<svg width="19" height="11" viewBox="0 0 19 11" fill="none" xmlns="http://www.w3.org/2000/svg">
<path d="M18.7888 9.7328C18.7659 9.6835 18.7446 9.6426 18.7247 9.6098C18.397 9.0196 17.7708 8.2951 16.8463 7.4362L16.8268 7.4165L16.8171 7.4069L16.8071 7.397H16.7972C16.3776 6.9971 16.1119 6.7281 16.0007 6.5905C15.7972 6.3282 15.7515 6.0627 15.8628 5.7937C15.9414 5.5905 16.2367 5.1613 16.7479 4.5055C17.0168 4.158 17.2298 3.87947 17.3871 3.66962C18.5215 2.16156 19.0133 1.19789 18.8624 0.77823L18.8038 0.68016C18.7644 0.621119 18.6628 0.567109 18.499 0.517849C18.335 0.468699 18.1252 0.46057 17.8695 0.493329L15.0372 0.512889C14.9913 0.496629 14.9257 0.498149 14.8404 0.517849C14.7552 0.537559 14.7125 0.54744 14.7125 0.54744L14.6632 0.57207L14.6241 0.601659C14.5913 0.621229 14.5552 0.65564 14.5158 0.70483C14.4766 0.75384 14.444 0.81137 14.4177 0.87692C14.1093 1.67025 13.7588 2.40785 13.3653 3.08968C13.1227 3.49625 12.8999 3.8486 12.6965 4.1469C12.4932 4.4452 12.3227 4.6649 12.1851 4.8058C12.0473 4.9467 11.923 5.0597 11.8113 5.145C11.6999 5.2304 11.6148 5.2664 11.5558 5.2532C11.4967 5.2401 11.4411 5.227 11.3884 5.2139C11.2967 5.1548 11.2229 5.0745 11.1673 4.9729C11.1114 4.8713 11.0738 4.7434 11.0542 4.5893C11.0345 4.4351 11.023 4.3025 11.0197 4.191C11.0166 4.0797 11.018 3.92215 11.0247 3.71891C11.0315 3.51557 11.0345 3.37799 11.0345 3.30587C11.0345 3.05668 11.0394 2.78624 11.0491 2.49449C11.0591 2.20272 11.0671 1.97156 11.0738 1.80125C11.0805 1.63077 11.0836 1.45042 11.0836 1.26028C11.0836 1.07013 11.072 0.921009 11.0491 0.812779C11.0266 0.704689 10.9919 0.59977 10.9462 0.49805C10.9002 0.39643 10.8329 0.31782 10.7446 0.26202C10.6561 0.20629 10.546 0.162059 10.4151 0.129199C10.0676 0.0505495 9.625 0.00800947 9.0873 0.00139947C7.86787 -0.0116905 7.08433 0.0670497 6.73683 0.23753C6.59915 0.30956 6.47455 0.40797 6.36316 0.53246C6.24511 0.67675 6.22865 0.755499 6.31387 0.768449C6.70731 0.827389 6.98584 0.968379 7.14978 1.19128L7.20885 1.3094C7.2548 1.39461 7.30068 1.54549 7.3466 1.76181C7.39245 1.97813 7.42204 2.21743 7.43505 2.47956C7.46778 2.95826 7.46778 3.36804 7.43505 3.70892C7.40223 4.0499 7.37123 4.3154 7.34164 4.5056C7.31205 4.6957 7.26782 4.8498 7.20885 4.9678C7.14978 5.0858 7.11047 5.1579 7.09077 5.1841C7.07109 5.2103 7.0547 5.2268 7.04168 5.2332C6.95646 5.2659 6.86783 5.2825 6.7761 5.2825C6.68423 5.2825 6.57283 5.2366 6.44173 5.1447C6.31066 5.0529 6.17464 4.9268 6.03364 4.7661C5.89265 4.6054 5.73366 4.3809 5.55656 4.0924C5.37961 3.80396 5.19601 3.46304 5.00587 3.06967L4.84855 2.78438C4.75021 2.60085 4.61587 2.33362 4.4454 1.98292C4.27482 1.63209 4.12405 1.29272 3.99298 0.964889C3.94058 0.827209 3.86187 0.722389 3.75699 0.650259L3.70777 0.620669C3.67504 0.594499 3.62251 0.566699 3.55045 0.537069C3.47829 0.507479 3.40298 0.486269 3.32424 0.473209L0.62954 0.49278C0.35418 0.49278 0.16734 0.555159 0.06896 0.679749L0.02959 0.738689C0.00992001 0.771509 0 0.82394 0 0.89611C0 0.96824 0.01967 1.05677 0.05904 1.16158C0.45242 2.08613 0.88021 2.97777 1.34241 3.83664C1.80461 4.6955 2.20625 5.3874 2.54709 5.9116C2.88801 6.4362 3.23551 6.9313 3.58958 7.3966C3.94365 7.8622 4.17802 8.1605 4.2927 8.2916C4.40751 8.4229 4.49768 8.5211 4.56323 8.5866L4.80915 8.8226C4.9665 8.98 5.19756 9.1685 5.50245 9.3881C5.8074 9.6078 6.14501 9.8241 6.51545 10.0374C6.88594 10.2503 7.31698 10.424 7.80876 10.5584C8.30049 10.6929 8.77908 10.7469 9.2446 10.7209H10.3757C10.605 10.701 10.7788 10.629 10.8969 10.5045L10.936 10.4552C10.9624 10.416 10.987 10.3553 11.0097 10.2734C11.0327 10.1915 11.0441 10.1012 11.0441 10.003C11.0374 9.7211 11.0589 9.467 11.108 9.2409C11.157 9.0148 11.2128 8.8443 11.2753 8.7295C11.3378 8.6148 11.4082 8.518 11.4867 8.4395C11.5653 8.3609 11.6213 8.3133 11.6542 8.2969C11.6868 8.2804 11.7129 8.2692 11.7326 8.2624C11.8899 8.21 12.0751 8.2608 12.2884 8.415C12.5015 8.5691 12.7015 8.7593 12.8884 8.9854C13.0753 9.2117 13.2998 9.4657 13.5619 9.7475C13.8244 10.0295 14.0538 10.2391 14.2503 10.377L14.447 10.495C14.5784 10.5737 14.7488 10.6459 14.9587 10.7114C15.1682 10.777 15.3517 10.7934 15.5092 10.7606L18.0268 10.7213C18.2759 10.7213 18.4696 10.6801 18.607 10.5983C18.7448 10.5163 18.8266 10.426 18.8529 10.3279C18.8793 10.2296 18.8807 10.118 18.8579 9.9933C18.8346 9.8689 18.8116 9.7819 18.7888 9.7328Z" fill="#959595"/>
</svg>
